<svg class="cpe-icon cpe-icon-small" id="svg" version="1.1" xmlns="http://www.w3.org/2000/svg" xmlns:xlink="http://www.w3.org/1999/xlink" width="400" height="336.88888888888886" viewBox="0, 0, 400,336.88888888888886"><g id="svgg"><path id="path0" d="M152.219 5.345 C 131.916 12.561,125.406 28.637,120.007 84.889 C 113.900 148.518,107.967 160.844,50.274 229.769 C 25.981 258.791,9.775 279.477,7.053 284.939 C -4.324 307.764,19.499 332.142,42.240 320.946 C 48.379 317.924,48.157 318.155,63.265 299.070 C 68.314 292.692,78.608 280.017,86.142 270.904 L 99.839 254.333 105.697 253.744 C 108.919 253.420,124.356 251.591,140.000 249.681 C 226.581 239.107,233.532 241.149,312.889 300.465 C 345.425 324.785,349.285 327.416,356.653 330.304 C 376.763 338.185,395.999 325.971,395.980 305.333 C 395.966 290.005,393.951 287.058,348.898 236.444 C 312.082 195.085,305.352 186.824,293.136 168.000 C 286.858 158.326,280.890 148.431,247.570 92.444 C 201.532 15.092,180.038 -4.542,152.219 5.345 M183.346 90.020 C 187.444 96.487,201.732 120.178,215.097 142.667 C 228.462 165.156,241.524 186.856,244.123 190.889 C 246.722 194.922,248.558 198.218,248.202 198.213 C 247.847 198.207,245.556 197.595,243.111 196.851 C 225.089 191.368,188.711 189.744,160.108 193.146 C 142.474 195.244,143.517 195.396,146.217 191.119 C 161.210 167.369,167.872 143.683,172.521 97.606 C 173.640 86.512,174.857 77.621,175.225 77.848 C 175.593 78.076,179.247 83.553,183.346 90.020 " stroke="none" fill="currentColor" fill-rule="evenodd"></path></g></svg>