<!--<svg version="1.1" width="51" height="55" viewBox="-1 -1 51 55" xmlns="http://www.w3.org/2000/svg" xmlns:xlink="http://www.w3.org/1999/xlink">

  <path id="ID0.06426620716229081" fill="none" stroke="#003FFF" stroke-width="2" stroke-linecap="round" d="M 230.850 189.850 L 229.150 181.350 L 229.950 175.850 L 234.400 171.800 L 237.250 168.500 L 241.750 163.150 L 248 169.250 L 250.200 171.700 L 253.950 176 L 254.500 180.450 L 253.500 189.500 " transform="matrix(1.82266104221344, 0, 0, 1.82266104221344, -414.85, -294.45)"/>
  <path id="ID0.0372769720852375" fill="none" stroke="#003FFF" stroke-width="2" stroke-linecap="round" d="M 230.600 181.900 L 232.100 180.200 L 241.800 180.250 L 251.700 180.250 L 253.750 182.150 " transform="matrix(1.7334266901016235, 0, 0, -3.7820217609405518, -393.05, 715.9)"/>
</svg>-->
<svg version="1.1" width="55" height="55" viewBox="-1 -1 55 55" xmlns="http://www.w3.org/2000/svg" xmlns:xlink="http://www.w3.org/1999/xlink">
  <path id="ID0.06426620716229081" fill="none" stroke="#003FFF" stroke-width="2" stroke-linecap="round" d="M 230.850 189.850 L 229.150 181.350 L 229.950 175.850 L 234.400 171.800 L 237.250 168.500 L 241.750 163.150 L 248 169.250 L 250.200 171.700 L 253.950 176 L 254.500 180.450 L 253.500 189.500 " transform="matrix(1.82266104221344, 0, 0, 1.82266104221344, -414.25, -294.45)"/>
  <path id="ID0.0372769720852375" fill="none" stroke="#003FFF" stroke-width="2" stroke-linecap="round" d="M 230.600 181.900 L 232.100 180.200 L 241.800 180.250 L 251.700 180.250 L 253.750 182.150 " transform="matrix(1.7334266901016235, 0, 0, -3.7820217609405518, -392.45, 715.9)"/>
</svg>