<svg version="1.1" width="28" height="38" class="wds-icon wds-icon-small" viewBox="-1 -1 28 38" xmlns="http://www.w3.org/2000/svg" xmlns:xlink="http://www.w3.org/1999/xlink">
  <path id="ID0.30106041533872485" fill="none" stroke="currentColor" stroke-width="2" stroke-linecap="round" d="M 236.400 180.300 C 236.400 180.300 237.400 181.250 237.950 181.750 C 238.600 182.300 240.100 183.450 240.100 183.450 C 240.100 183.450 240.441 182.124 240.550 181.450 C 240.775 180.057 240.885 178.644 241.100 177.250 C 241.201 176.595 241.500 175.300 241.500 175.300 " transform="matrix(3.5806450843811035, 0, 0, 3.5806450843811035, -842.45, -623.7)"/>
  <path id="ID0.44152843300253153" fill="none" stroke="currentColor" stroke-width="2" stroke-linecap="round" d="M 242.050 185.800 Z " transform="matrix(3.5806450843811035, 0, 0, 3.5806450843811035, -842.45, -623.7)"/>
  <path id="ID0.040299186017364264" fill="none" stroke="currentColor" stroke-width="2" stroke-linecap="round" d="M 240.250 183.250 Z " transform="matrix(3.5806450843811035, 0, 0, 3.5806450843811035, -842.45, -623.7)"/>
  <path id="ID0.9710109918378294" fill="none" stroke="currentColor" stroke-width="2" stroke-linecap="round" d="M 240.300 182.850 Z " transform="matrix(3.5806450843811035, 0, 0, 3.5806450843811035, -842.45, -623.7)"/>
</svg>