<?xml version="1.0" encoding="UTF-8" standalone="no"?>
<!-- Generated by IcoMoon.io -->
<svg xmlns="http://www.w3.org/2000/svg" version="1.1"  class="wds-icon"  width="26.27264"  height="25.587999" viewBox="0 0 26.27264 25.587999">

<filter xmlns="http://www.w3.org/2000/svg" id="invert">
    <feComponentTransfer>
        <feFuncR type="table" tableValues="1 0" />
        <feFuncG type="table" tableValues="1 0" />
        <feFuncB type="table" tableValues="1 0" />
    </feComponentTransfer>
 </filter>
   <path fill="currentcolor" d="M 0.0581,0 C 0.029,0.093 0,0.185 0,0.308 V 23.537 C 0,23.754 0.0591,23.877 0.17824,24 L 11.23542,11.907 Z m 11.92315,12.708 2.85849,3.045 -4.08094,2.4 c 0,0 -5.18714,3.044 -8.04758,4.739 l 9.27001,-10.184 z m 0.77589,-0.831 3.06677,3.292 c 0.48046,-0.276 4.23398,-2.492 4.76965,-2.8 0.56569,-0.338 0.50854,-0.8 0.0281,-1.046 -0.44461,-0.255 -4.19813,-2.475 -4.76577,-2.835 z m -0.77782,-0.8 2.89045,-3.169 -4.12548,-2.431 c 0,0 -6.72537,-3.972 -8.96295,-5.298 z"
/>
  <path	 fill="currentcolor" filter="url(#invert)" d="m 17.48914,25.588 -0.097,-0.003 a 1.498,1.498 0 0 1 -1.351,-1.117 l -3.284,-12.591 -1.799,4.517 c -0.226,0.57 -0.778,0.943 -1.389,0.943 h -3.802 a 1.497,1.497 0 0 1 -1.496,-1.499 c 0,-0.827 0.67,-1.498 1.496,-1.498 h 2.788 l 3.11,-7.808 a 1.49,1.49 0 0 1 1.482,-0.94 c 0.644,0.04 1.19,0.49 1.354,1.116 l 3.292,12.622 1.635,-4.052 a 1.495,1.495 0 0 1 1.386,-0.938 h 3.96 a 1.4985,1.4985 0 0 1 0,2.997 h -2.95 l -2.949,7.314 c -0.229,0.57 -0.78,0.937 -1.386,0.937"
/>
</svg>
